<svg width="114" height="114" viewBox="0 0 114 114" fill="none" xmlns="http://www.w3.org/2000/svg">
<path d="M29.1008 11.3368L41.402 25.6165C42.7362 32.7696 33.8015 43.2626 27.5644 41.6798L15.2632 27.4039C14.7022 29.6153 14.4216 31.9025 14.4216 34.1896C14.4216 40.256 16.4017 46.3147 20.3912 50.9496C24.7982 56.0655 30.7123 58.364 36.4763 57.8452C39.5198 57.5726 42.5176 58.8639 44.6771 61.3707L76.195 97.9579C78.0805 100.147 80.5564 101.245 83.0355 101.245C88.4538 101.245 92.8249 96.0797 92.7108 89.771C92.6586 86.9802 91.7126 84.2046 89.8793 82.0726L58.3614 45.4816C56.2019 42.9786 55.0928 39.4948 55.3244 35.9618C55.7713 29.2707 53.788 22.4054 49.3875 17.2933C45.3915 12.6584 40.1722 10.3636 34.9432 10.3636C32.9762 10.3636 31.0059 10.6893 29.1008 11.3368V11.3368ZM86.1867 89.8846C86.1867 91.9787 84.7285 93.6713 82.9246 93.6713C81.1207 93.6713 79.6626 91.9749 79.6626 89.8846C79.6626 87.7944 81.1207 86.0979 82.9246 86.0979C84.7285 86.0979 86.1867 87.7906 86.1867 89.8846Z" fill="white"/>
</svg>
