<svg width="114" height="114" viewBox="0 0 114 114" fill="none" xmlns="http://www.w3.org/2000/svg">
<g clip-path="url(#clip0)">
<path d="M52.25 28.5V66.5H85.5V57H61.75V28.5H52.25ZM103.807 64.9942L113.297 65.7495C112.67 69.806 111.63 73.7105 110.2 77.4345L101.65 73.1357C102.6 70.5185 103.327 67.8015 103.807 64.9942ZM91.7035 102.168L84.9917 95.3135C82.6833 97.0045 80.2132 98.4865 77.6055 99.7453L80.7832 108.766C84.683 106.975 88.3405 104.757 91.7035 102.168ZM97.527 81.7C95.9357 84.2935 94.1117 86.7208 92.0692 88.958L98.7383 95.7647C101.507 92.7865 103.959 89.5138 106.049 85.9893L97.527 81.7ZM0 57C0 88.4782 25.5312 114 57.019 114C62.1537 114 67.108 113.259 71.839 111.986L68.6803 102.989C64.942 103.939 61.047 104.5 57.019 104.5C30.818 104.5 9.50475 83.1915 9.50475 57C9.50475 30.8085 30.818 9.5 57.019 9.5C67.6352 9.5 77.4107 13.034 85.3242 18.9478L75.5868 28.6805L108.908 35.112L102.472 1.80025L92.0977 12.1695C82.4268 4.579 70.2715 0 57.019 0C25.5312 0 0 25.5218 0 57H0ZM112.922 45.7948H103.061C103.835 48.9345 104.301 52.1787 104.429 55.518L114 56.2827C113.952 52.6965 113.596 49.1862 112.922 45.7948Z" fill="white"/>
</g>
<defs>
<clipPath id="clip0">
<rect width="114" height="114" fill="white"/>
</clipPath>
</defs>
</svg>
