<svg width="144" height="144" viewBox="0 0 144 144" fill="none" xmlns="http://www.w3.org/2000/svg">
<path d="M36.7591 14.3202L52.2974 32.3577C53.9827 41.3932 42.6967 54.6475 34.8183 52.6481L19.28 34.6154C18.5713 37.4088 18.2169 40.2978 18.2169 43.1869C18.2169 50.8496 20.7181 58.5028 25.7574 64.3574C31.3242 70.8196 38.7946 73.723 46.0755 73.0677C49.9199 72.7233 53.7066 74.3544 56.4344 77.5208L96.2465 123.736C98.6281 126.501 101.756 127.888 104.887 127.888C111.731 127.888 117.253 121.364 117.108 113.395C117.043 109.87 115.848 106.364 113.532 103.671L73.7198 57.4505C70.992 54.2888 69.5911 49.8882 69.8836 45.4255C70.4481 36.9735 67.9429 28.3015 62.3844 21.8442C57.3368 15.9895 50.744 13.0909 44.1389 13.0909C41.6542 13.0909 39.1654 13.5023 36.7591 14.3202V14.3202ZM108.868 113.538C108.868 116.184 107.026 118.322 104.747 118.322C102.468 118.322 100.627 116.179 100.627 113.538C100.627 110.898 102.468 108.755 104.747 108.755C107.026 108.755 108.868 110.893 108.868 113.538Z" fill="white"/>
</svg>
