<svg width="114" height="114" viewBox="0 0 114 114" fill="none" xmlns="http://www.w3.org/2000/svg">
<path d="M26.03 47.9227L33.5493 40.9688C42.3558 45.2248 47.9323 48.4642 57.8218 55.518C76.4228 34.4185 88.711 23.712 111.549 9.5L114 15.1335C95.1663 31.5685 81.3675 49.875 61.5078 85.5C49.2575 71.0695 41.078 61.8735 26.03 47.9227ZM94.4632 50.5685C94.7815 52.6727 95 54.8102 95 57C95 80.5695 75.8195 99.75 52.25 99.75C28.6805 99.75 9.5 80.5695 9.5 57C9.5 33.4305 28.6805 14.25 52.25 14.25C61.6123 14.25 70.2525 17.309 77.3015 22.4342C79.7763 20.3158 82.2985 18.2495 84.9015 16.245C75.9525 9.06775 64.6143 4.75 52.25 4.75C23.3938 4.75 0 28.1438 0 57C0 85.8562 23.3938 109.25 52.25 109.25C81.1062 109.25 104.5 85.8562 104.5 57C104.5 51.3997 103.597 46.0132 101.964 40.9545C99.4555 43.9613 96.9665 47.1532 94.4632 50.5685Z" fill="white"/>
</svg>
